<?xml version="1.0" encoding="UTF-8"?>
<svg version="1.1" viewBox="0 0 1600 1600" width="1280" height="1280" xmlns="http://www.w3.org/2000/svg">
<path transform="translate(811 502)" d="m0 0c1.61-0.00857 1.61-0.00857 3.25-0.0173 1.19-0.00112 2.38-0.00224 3.6-0.00339 1.24-0.00496 2.49-0.00993 3.77-0.015 3.42-0.0121 6.84-0.0196 10.3-0.024 2.14-0.00293 4.27-0.00703 6.41-0.0115 6.68-0.0137 13.4-0.0233 20-0.0272 7.72-0.00448 15.4-0.022 23.2-0.051 5.96-0.0216 11.9-0.0317 17.9-0.033 3.56-0.00105 7.12-0.00699 10.7-0.0248 3.97-0.0195 7.94-0.0152 11.9-0.00869 1.18-0.00921 2.37-0.0184 3.59-0.0279 1.62 0.00835 1.62 0.00835 3.27 0.0169 0.94-0.00147 1.88-0.00293 2.85-0.00444 2.82 0.443 3.66 1.13 5.37 3.37 0.992 2.43 0.992 2.43 1.88 5.31 3.21 10.1 6.78 20 10.9 29.7 1.61 3.99 2.92 8.06 4.2 12.2 1.09 3.08 2.53 5.87 3.99 8.79 0.825 2.18 1.62 4.36 2.38 6.56 2.72 7.76 5.62 15.5 8.69 23.1 0.781 1.96 1.52 3.93 2.25 5.91 1.25 3.35 2.61 6.64 4 9.94 2.79 6.66 5.31 13.4 7.82 20.2 1.63 4.36 3.28 8.72 4.93 13.1 0.342 0.9 0.683 1.8 1.04 2.73 1.82 4.78 3.71 9.51 5.71 14.2 1.81 4.25 3.18 8.49 4.44 12.9 1.24 3.95 3.01 7.64 4.75 11.4 1.17 2.83 2.25 5.68 3.31 8.56 1.29 3.48 2.73 6.89 4.19 10.3 1.97 4.65 3.54 9.28 4.82 14.2 0.585 2.16 0.585 2.16 2.68 3.96 0.746 2.1 0.746 2.1 1.44 4.62 1.04 3.77 2.31 7.38 3.7 11 2.13 5.78 3.98 11.7 5.9 17.5 1.87 5.66 3.83 11.3 5.96 16.8 5.23 14 9.71 28.1 13.6 42.6 0.284 1.04 0.568 2.08 0.86 3.16 0.251 0.936 0.502 1.87 0.76 2.84 0.745 2.62 0.745 2.62 2.79 5.4 0.708 2.5 1.35 4.97 1.94 7.5 0.35 1.44 0.7 2.88 1.05 4.32 0.171 0.708 0.342 1.42 0.518 2.15 0.686 2.83 1.39 5.66 2.12 8.48 0.219 0.865 0.438 1.73 0.664 2.62 0.531 2.14 0.531 2.14 2.71 2.94 0.182-0.929 0.364-1.86 0.551-2.82 2.31-11.3 2.31-11.3 4.01-15 1.22-2.7 1.86-4.82 2.44-7.69 0.841-4.11 2.28-7.66 4-11.5 1.78-4.87 3.26-9.83 4.79-14.8 1.89-6.12 3.87-12.2 6.11-18.2 1.73-4.8 3.32-9.66 4.91-14.5 1.61-4.9 3.37-9.72 5.19-14.5 0.511-1.5 1.01-3 1.5-4.5 2.81-8.69 6.28-17.2 9.56-25.7 0.447-1.16 0.893-2.32 1.35-3.52 0.431-1.12 0.862-2.24 1.31-3.4 0.389-1.01 0.779-2.02 1.18-3.07 0.708-1.82 1.43-3.65 2.15-5.46 0.808-2.03 1.57-4.07 2.32-6.12 1.1-2.96 2.31-5.82 3.62-8.69 1.68-3.72 3.03-7.47 4.28-11.4 1.68-5.15 3.71-10.2 5.72-15.2 0.443-1.19 0.887-2.37 1.34-3.59 1.97-5.25 4.01-10.5 6.05-15.7 1.42-3.63 2.82-7.27 4.18-10.9 1.17-3.13 2.42-6.21 3.74-9.28 2.3-5.47 4.39-11 6.45-16.6 1.53-4.11 3.14-8.15 4.86-12.2 2.05-4.84 3.72-9.73 5.34-14.7 1.43-4.17 3.14-8.2 4.87-12.3 1.5-3.55 2.83-7.15 4.16-10.8 1.05-2.68 2.14-5.31 3.31-7.94 2.06-4.76 3.7-9.67 5.41-14.6 1.06-2.9 2.22-5.72 3.46-8.54 0.964-2.28 1.85-4.59 2.73-6.91 0.333-0.866 0.666-1.73 1.01-2.62 0.688-1.79 1.37-3.59 2.04-5.39 0.335-0.861 0.669-1.72 1.01-2.61 0.443-1.17 0.443-1.17 0.894-2.36 1.4-2.54 2.67-3.54 5.14-5.07 2.48-0.369 2.48-0.369 5.3-0.361 1.61-0.00619 1.61-0.00619 3.25-0.0125 1.17 0.0108 2.35 0.0216 3.56 0.0327 1.86-6.57e-4 1.86-6.57e-4 3.76-0.00133 3.39 0.00173 6.79 0.0168 10.2 0.0377 3.55 0.0188 7.1 0.0205 10.6 0.0241 6.72 0.00932 13.4 0.0339 20.2 0.064 7.65 0.0335 15.3 0.05 22.9 0.0651 15.7 0.0314 31.5 0.0841 47.2 0.151 1.67 3.99 2.47 7.46 2.96 11.8 0.0779 0.665 0.156 1.33 0.236 2.01 0.254 2.19 0.496 4.39 0.737 6.59 0.0852 0.754 0.17 1.51 0.258 2.28 1.66 14.7 2.83 29.4 3.85 44.2 0.086 1.21 0.086 1.21 0.174 2.45 0.107 1.52 0.211 3.04 0.309 4.57-0.0334 3.37-0.0334 3.37 1.47 6.17 0.291 2.72 0.523 5.43 0.719 8.16 0.0628 0.817 0.126 1.63 0.19 2.48 0.27 3.51 0.529 7.03 0.789 10.5 0.191 2.56 0.387 5.12 0.583 7.67 0.0573 0.801 0.115 1.6 0.174 2.43-0.035 3.67-0.035 3.67 1.55 6.73 0.294 2.44 0.528 4.85 0.727 7.3 0.142 1.64 0.285 3.29 0.428 4.93 0.114 1.34 0.114 1.34 0.23 2.71 1.83 21.4 3.94 42.7 6.12 64.1 0.114 1.12 0.114 1.12 0.23 2.26 1.82 17.9 3.66 35.8 5.64 53.7 0.0794 0.721 0.159 1.44 0.24 2.19 0.727 7.18 0.727 7.18 1.89 14.3 0.569 2.92 0.828 5.79 1.07 8.76 0.106 1.27 0.212 2.54 0.321 3.84 0.0847 1.03 0.0847 1.03 0.171 2.07 1.21 14.6 2.64 29.1 4.18 43.7 0.435 4.13 0.87 8.27 1.3 12.4 0.114 1.09 0.229 2.17 0.346 3.29 1.52 14.5 3 29 4.47 43.4 0.0727 0.715 0.145 1.43 0.22 2.17 2.51 24.7 4.92 49.3 7.28 74 0.076 0.795 0.152 1.59 0.23 2.41 0.505 5.28 1.01 10.6 1.51 15.8 0.0639 0.671 0.128 1.34 0.194 2.03 0.182 1.91 0.363 3.82 0.544 5.73 0.111 1.16 0.222 2.32 0.336 3.52 0.205 2.22 0.399 4.43 0.582 6.65 0.124 1.5 0.124 1.5 0.251 3.04 0.103 1.32 0.103 1.32 0.208 2.66 0.0626 1.99 0.0626 1.99 1.27 2.99v16h-117c-1.66-4.15-2.31-6.47-2.63-10.7-0.0838-1.07-0.168-2.13-0.254-3.23-0.0786-1.1-0.157-2.21-0.238-3.34-0.0864-1.12-0.173-2.24-0.262-3.4-0.212-2.76-0.416-5.52-0.613-8.29h-1c-0.0604-0.76-0.121-1.52-0.183-2.3-0.569-7.15-1.14-14.3-1.72-21.5-0.297-3.68-0.592-7.35-0.884-11-0.282-3.55-0.567-7.09-0.856-10.6-0.109-1.35-0.218-2.71-0.324-4.06-0.149-1.89-0.304-3.79-0.459-5.68-0.0866-1.08-0.173-2.16-0.262-3.27-0.163-2.54-0.163-2.54-1.31-4.56-0.193-1.46-0.334-2.92-0.449-4.39-0.11-1.37-0.11-1.37-0.223-2.77-0.076-0.998-0.152-2-0.23-3.02-0.0821-1.04-0.164-2.07-0.249-3.14-0.266-3.37-0.526-6.74-0.786-10.1-0.18-2.29-0.36-4.59-0.54-6.88-1.22-15.6-2.41-31.1-3.52-46.7h-1c-0.753-8.56-1.5-17.1-2.24-25.7-0.345-3.98-0.692-7.96-1.04-11.9-1.92-21.8-3.52-43.6-4.71-65.4h-1c-0.395-8.22-0.787-16.4-1.17-24.6-0.18-3.82-0.361-7.63-0.545-11.4-0.178-3.7-0.353-7.39-0.525-11.1-0.0657-1.4-0.133-2.79-0.201-4.19-0.466-9.55-0.636-19.1-0.556-28.6-0.66-0.33-1.32-0.66-2-1-0.17 0.534-0.34 1.07-0.516 1.62-1.3 4-2.68 7.93-4.3 11.8-1.89 4.62-3.45 9.32-5 14.1-2.29 7.01-4.85 13.9-7.57 20.7-2.43 6.15-4.56 12.4-6.57 18.7-1.45 4.49-3.17 8.77-5.04 13.1-1.2 3.15-2.35 6.33-3.5 9.5-1.58 4.37-3.16 8.71-5 13-1.87 4.4-3.44 8.88-5 13.4-0.295 0.847-0.59 1.69-0.895 2.57-1.7 4.89-3.35 9.78-4.93 14.7-0.68 1.85-0.68 1.85-2.18 4.29-1.87 3.19-2.74 6.4-3.75 9.94-1.62 5.68-3.5 11.2-5.88 16.6-3.75 8.78-6.92 17.8-10.2 26.8-1.92 5.24-3.88 10.5-5.85 15.7-1.73 4.57-3.37 9.16-4.88 13.8-1.27 3.9-2.7 7.66-4.31 11.4-2.07 4.86-3.89 9.76-5.62 14.8-3.26 9.35-6.71 18.6-10.6 27.7-2 4.74-3.43 9.46-4.7 14.4-0.708 2.57-1.68 4.95-2.79 7.37-1.74 4.08-3.13 8.29-4.6 12.5-2.45 6.89-5.08 13.7-7.72 20.5-0.43 1.12-0.43 1.12-0.869 2.26-1.51 3.9-3.1 7.76-4.81 11.6-0.355 0.794-0.71 1.59-1.08 2.41-0.268 0.597-0.535 1.19-0.811 1.81-8.91 0.139-17.8 0.246-26.7 0.311-4.14 0.0313-8.27 0.0737-12.4 0.142-3.99 0.0653-7.99 0.101-12 0.117-1.52 0.0111-3.05 0.0327-4.57 0.0651-11.9 0.244-11.9 0.244-15.3-1.93-2.26-2.64-3.66-5.75-4.59-9.08-0.233-0.779-0.467-1.56-0.707-2.36-0.22-0.748-0.441-1.5-0.668-2.27-1.63-4.51-3.39-8.96-5.2-13.4-2.31-5.69-4.43-11.4-6.09-17.3-1.03-3.36-2.4-6.56-3.74-9.81-1.28-3.31-2.24-6.67-3.16-10.1-0.778-2.53-0.778-2.53-2.21-5.17-1.91-3.9-3.21-7.87-4.53-12-2.13-6.52-4.4-12.9-7.06-19.2-2.06-4.95-4.01-9.85-5.5-15-1.22-4.22-2.73-8.24-4.4-12.3-3.35-8.19-6.39-16.4-9.14-24.9-1.77-5.2-3.89-10.3-6-15.3-1.69-4.13-3.23-8.22-4.46-12.5-1.2-4.16-2.69-8.11-4.34-12.1-6.47-16-12.1-32.4-17.5-48.8-1.27-3.83-2.54-7.65-3.82-11.5-0.547-1.64-1.09-3.29-1.63-4.94-1.28-3.87-2.62-7.71-4.04-11.5-2.21-6.01-4.11-12.1-5.99-18.2-1.36-4.38-2.83-8.67-4.47-13-3.23-8.69-6.15-17.8-7.73-26.9 0.33-0.66 0.66-1.32 1-2h-2c-1.32-4.95-2.64-9.9-4-15h-2c-0.0198 1.28-0.0396 2.57-0.0601 3.89-0.376 23.7-0.87 47.5-1.94 71.2-0.0418 0.96-0.0836 1.92-0.127 2.91-0.119 2.69-0.244 5.38-0.373 8.07-0.0354 0.799-0.0708 1.6-0.107 2.42-0.277 5.43-0.277 5.43-1.39 6.54-0.173 2.35-0.284 4.68-0.359 7.04-0.0607 1.57-0.122 3.15-0.184 4.72-0.0327 0.856-0.0655 1.71-0.0992 2.59-0.749 19-2.04 37.9-3.54 56.8-0.104 1.3-0.207 2.6-0.314 3.93-0.505 6.32-1.02 12.6-1.53 18.9-0.953 11.7-1.89 23.5-2.82 35.2-0.159 2-0.318 4.01-0.477 6.01-0.238 3-0.477 6.01-0.715 9.01-0.544 6.86-1.09 13.7-1.64 20.6-0.074 0.929-0.148 1.86-0.224 2.81-0.283 3.55-0.566 7.1-0.849 10.6-0.129 1.62-0.259 3.24-0.388 4.86-0.121 1.52-0.243 3.04-0.365 4.56-0.275 3.43-0.535 6.85-0.773 10.3-0.0829 1.19-0.166 2.37-0.251 3.59-0.0681 1.03-0.136 2.06-0.206 3.12-0.265 2.3-0.265 2.3-1.27 3.3-0.175 1.39-0.288 2.78-0.373 4.18-0.0568 0.888-0.114 1.78-0.172 2.69-0.0573 0.967-0.115 1.93-0.174 2.93-0.0628 0.988-0.126 1.98-0.19 2.99-0.201 3.17-0.397 6.35-0.591 9.52-0.195 3.16-0.39 6.32-0.591 9.49-0.125 1.97-0.246 3.94-0.364 5.91-0.0568 0.897-0.114 1.79-0.172 2.72-0.0481 0.788-0.0961 1.58-0.146 2.39-0.227 2.18-0.227 2.18-1.23 6.18h-118c-1.44-2.88-0.893-5.11-0.633-8.31 0.101-1.27 0.202-2.53 0.305-3.84 0.108-1.27 0.216-2.55 0.327-3.86 0.135-1.64 0.135-1.64 0.274-3.31 0.275-3.27 0.56-6.54 0.847-9.81 0.215-2.48 0.429-4.95 0.644-7.43 0.165-1.91 0.165-1.91 0.334-3.85 1.69-19.6 3.37-39.1 4.36-58.7 0.0613-1.18 0.123-2.36 0.186-3.57 0.0701-1.49 0.0701-1.49 0.142-3.02 0.218-2.32 0.218-2.32 1.22-4.32 0.259-1.99 0.466-4 0.648-6 0.117-1.26 0.234-2.53 0.354-3.83 0.124-1.39 0.249-2.78 0.373-4.17 0.13-1.43 0.261-2.87 0.392-4.3 0.275-3.02 0.547-6.04 0.817-9.06 0.341-3.82 0.689-7.63 1.04-11.5 1.89-20.1 1.89-20.1 3.09-40.3 0.194-4.65 0.194-4.65 1.29-6.84 0.282-2.48 0.513-4.95 0.708-7.44 0.0636-0.77 0.127-1.54 0.193-2.33 0.211-2.57 0.417-5.14 0.622-7.71 0.148-1.81 0.296-3.63 0.445-5.44 0.394-4.82 0.783-9.63 1.17-14.5 0.383-4.75 0.771-9.5 1.16-14.2 0.609-7.47 1.21-14.9 1.82-22.4 0.58-7.19 1.17-14.4 1.76-21.6 0.206-2.51 0.412-5.02 0.618-7.54 0.128-1.56 0.257-3.13 0.387-4.69 0.778-9.38 1.48-18.8 1.83-28.2 0.194-4.87 0.194-4.87 1.29-5.97 0.176-1.5 0.288-3 0.373-4.5 0.0568-0.958 0.114-1.92 0.172-2.9 0.086-1.56 0.086-1.56 0.174-3.16 0.0628-1.06 0.126-2.12 0.19-3.22 0.201-3.41 0.397-6.81 0.591-10.2 0.255-4.48 0.516-8.96 0.781-13.4 0.086-1.56 0.086-1.56 0.174-3.16 0.0568-0.958 0.114-1.92 0.172-2.9 0.0481-0.847 0.0961-1.69 0.146-2.57 0.227-1.94 0.227-1.94 1.23-2.94 0.199-1.38 0.337-2.77 0.449-4.15 0.0736-0.887 0.147-1.77 0.223-2.69 0.0761-0.973 0.152-1.95 0.23-2.95 0.0826-1.01 0.165-2.02 0.25-3.06 0.266-3.26 0.525-6.52 0.785-9.78 0.256-3.17 0.513-6.33 0.771-9.5 0.172-2.12 0.343-4.23 0.513-6.35 0.426-5.28 0.866-10.6 1.33-15.8 0.0903-1.02 0.181-2.04 0.274-3.09 0.17-1.9 0.342-3.81 0.516-5.71 0.647-7.24 1.04-14.5 1.31-21.8 0.241-5.93 0.241-5.93 1.34-8.13 0.273-2.61 0.496-5.21 0.684-7.82 0.124-1.6 0.249-3.2 0.373-4.81 0.191-2.52 0.38-5.05 0.566-7.57 0.181-2.44 0.371-4.87 0.561-7.31 0.0522-0.745 0.104-1.49 0.158-2.26 1.14-14.3 1.14-14.3 8.62-14.4zm-11 46.1v6h1v-6h-1zm371 6 1 2zm-379 86v9h1v-9h-1zm-4 49v6h1v-6h-1zm442 23 1 2zm1 20 1 4zm-149 58 1 2zm-5 15 1 2zm-301 27v7h1v-7h-1zm463 1 1 2zm-172 3 1 2zm173 7 1 3zm6 61 1 2zm1 12 1 2zm-479 2v8h1v-8h-1zm480 10v6h1v-6h-1zm-481 9 1 2zm486 45 1 2zm-490 4 1 2zm-1 13 1 2z" fill="#FCFDFF"/>
<path transform="translate(385 502)" d="m0 0c1.23-0.0099 2.46-0.0198 3.72-0.03 1.36 0.00424 2.73 0.0088 4.09 0.0136 1.43-0.0057 2.87-0.0127 4.3-0.0208 3.9-0.018 7.79-0.0168 11.7-0.0111 3.25 0.00309 6.5-0.00299 9.75-0.00904 7.67-0.0141 15.3-0.0125 23-0.0011 7.92 0.0115 15.8-0.0026 23.7-0.0294 6.79-0.0221 13.6-0.0288 20.4-0.0229 4.06 0.00338 8.12 9.1e-4 12.2-0.0163 3.82-0.0154 7.63-0.0116 11.4 0.00731 1.4 0.0037 2.8 5.44e-4 4.21-0.00989 1.91-0.0131 3.82 6.97e-4 5.73 0.016 1.07 2.09e-4 2.14 4.19e-4 3.24 6.34e-4 2.64 0.501 2.64 0.501 4.45 2.39 1.25 2.22 2.12 4.32 2.91 6.74 0.293 0.889 0.585 1.78 0.887 2.7 0.295 0.923 0.59 1.85 0.895 2.8 0.295 0.9 0.59 1.8 0.895 2.73 1.44 4.41 2.82 8.82 4.14 13.3 1.39 4.66 2.91 9.27 4.47 13.9 0.553 1.66 1.1 3.31 1.66 4.97 0.954 2.86 1.91 5.73 2.86 8.59 1.86 5.59 3.72 11.2 5.58 16.8 0.975 2.94 1.95 5.88 2.93 8.81 0.476 1.43 0.951 2.87 1.43 4.3 2.46 7.42 4.98 14.8 7.68 22.2 1.28 3.54 2.39 7.12 3.49 10.7 3.59 11.5 7.44 23 11.3 34.4 2.49 7.45 4.98 14.9 7.46 22.3 0.769 2.31 1.54 4.62 2.31 6.92 2.25 6.75 4.5 13.5 6.74 20.3 0.539 1.62 0.539 1.62 1.09 3.28 0.644 1.94 1.29 3.88 1.93 5.82 1.8 5.43 3.7 10.8 5.68 16.2 1.38 3.8 2.64 7.65 3.9 11.5 0.387 1.14 0.387 1.14 0.781 2.31 1.15 3.4 2.25 6.79 3.22 10.2 0.727 2.5 1.5 4.83 2.44 7.25 1.44 3.75 2.61 7.54 3.72 11.4 1.2 3.96 2.53 7.87 3.84 11.8 0.477 1.43 0.954 2.86 1.43 4.29 0.742 2.23 1.48 4.45 2.23 6.68 1.24 3.71 2.47 7.43 3.7 11.1 2.65 8.02 5.36 16 8.41 23.9 1.48 3.83 2.76 7.69 3.94 11.6 2.62 8.58 5.49 17.1 8.35 25.6 6.23 18.5 6.23 18.5 8.35 25.8 1.6 5.44 3.46 10.7 5.59 16 2.8 6.9 4.99 13.9 7.19 21.1 3.13 10.1 6.52 20.1 9.88 30.2 1.25 3.73 2.5 7.47 3.74 11.2 1.48 4.46 1.48 4.46 2.98 8.91 1.4 4.14 2.71 8.3 3.99 12.5 2.11 6.87 4.46 13.5 7.21 20.2 1.49 3.94 2.08 6.82 2 11-16.1 0.117-32.2 0.205-48.3 0.259-7.47 0.0258-14.9 0.0609-22.4 0.118-6.51 0.0498-13 0.0821-19.5 0.0932-3.45 0.00652-6.9 0.0219-10.3 0.0582-3.85 0.0402-7.7 0.0413-11.6 0.039-1.15 0.018-2.29 0.036-3.47 0.0545-7.73-0.0506-7.73-0.0506-11.1-3.03-1.15-2.26-2.07-4.25-2.69-6.7-0.197-0.75-0.395-1.5-0.598-2.27-0.193-0.781-0.386-1.56-0.585-2.37-0.424-1.62-0.85-3.25-1.28-4.87-0.299-1.15-0.299-1.15-0.605-2.32-0.633-2.35-1.37-4.64-2.18-6.93-1.16-3.34-2.04-6.69-2.88-10.1-1.03-4.22-2.2-8.31-3.62-12.4-3.29-9.7-6.19-19.5-8.97-29.4-0.814-2.86-1.66-5.71-2.53-8.56-1.79-5.96-3.38-11.3-3.38-17.6h-186c-3.35 8.28-3.35 8.28-5.81 16.6-1.8 7.02-3.78 14-5.81 20.9-0.452 1.55-0.452 1.55-0.913 3.14-1.4 4.8-2.86 9.56-4.46 14.3-0.574 1.95-1.14 3.91-1.69 5.88-2.21 7.79-4.48 15.6-6.76 23.3-1.71 5.85-3.36 11.7-4.92 17.6-0.633 2.19-0.633 2.19-1.63 4.19h-122c-1.08-5.42-0.61-6.95 1.31-11.9 0.45-1.18 0.9-2.37 1.36-3.59 0.437-1.15 0.874-2.29 1.32-3.47 0.679-2 1.35-4 2-6l2.44-7.31c0.222-0.666 0.443-1.33 0.672-2.02 0.898-2.7 1.8-5.39 2.71-8.08 1.51-4.47 2.92-8.96 4.31-13.5 3.42-11.1 7.15-22 10.8-33 1.38-4.11 2.75-8.22 4.11-12.3 0.229-0.687 0.458-1.37 0.695-2.08 1.42-4.26 2.84-8.52 4.25-12.8 0.351-1.06 0.702-2.12 1.06-3.21 0.682-2.05 1.36-4.11 2.04-6.16 1.91-5.74 3.91-11.4 5.99-17.1 1.13-3.1 2.18-6.21 3.21-9.34 0.422-1.27 0.844-2.55 1.27-3.82 0.225-0.681 0.45-1.36 0.682-2.06 1.43-4.31 2.87-8.62 4.3-12.9 0.599-1.8 1.2-3.59 1.8-5.39 58.1-174 58.1-174 59.4-178 0.849-2.55 1.7-5.1 2.54-7.66 1.83-5.53 3.67-11 5.71-16.5 2.01-5.43 3.61-11 5.16-16.5 0.195-0.688 0.391-1.38 0.592-2.08 0.168-0.606 0.337-1.21 0.51-1.83 0.736-2.18 0.736-2.18 2.13-5.38 1.81-4.15 3.19-8.4 4.57-12.7 0.409-1.26 0.409-1.26 0.826-2.55 0.866-2.68 1.73-5.36 2.59-8.04 1.13-3.51 2.27-7.02 3.4-10.5 0.275-0.853 0.55-1.71 0.834-2.58 2.41-7.48 4.89-14.9 7.39-22.4 0.792-2.37 1.58-4.75 2.38-7.12 1.45-4.36 2.9-8.71 4.36-13.1 0.301-0.902 0.602-1.8 0.911-2.73 0.611-1.83 1.22-3.67 1.84-5.5 1.25-3.74 2.49-7.48 3.72-11.2 7.11-21.7 7.11-21.7 15.7-21.7zm64.1 90.4c-3.06 7.44-4.72 14.6-6 22.5-0.329 2.03-0.662 4.06-1 6.09-0.144 0.894-0.289 1.79-0.438 2.71-0.626 3-1.58 5.79-2.56 8.7-0.719 2.67-1.42 5.35-2.09 8.03-0.192 0.754-0.384 1.51-0.582 2.29-0.61 2.39-1.22 4.79-1.82 7.18-0.8 3.16-1.6 6.31-2.41 9.47-0.18 0.716-0.361 1.43-0.546 2.17-1.02 4.02-2.21 7.94-3.55 11.9-0.359 1.49-0.694 2.99-1 4.5-0.772 3.61-1.83 7-3 10.5-0.404 1.64-0.798 3.29-1.19 4.94-1.52 6.25-3.41 12.4-5.31 18.5-2.25 7.27-4.35 14.5-5.89 21.9-0.682 2.95-1.63 5.75-2.61 8.62-0.767 2.77-1.49 5.54-2.22 8.32-0.781 2.68-0.781 2.68-1.78 5.12-1.16 2.96-1.83 5.89-2.5 9-0.936 4.31-2.08 8.39-3.5 12.6-2.39 7.65-4.69 15.3-7 23-0.231 0.762-0.461 1.52-0.699 2.31-1.98 6.56-3.75 12.8-4.3 19.7 2.33 1.17 3.69 1.13 6.28 1.13 0.9 0.00282 1.8 0.00564 2.73 0.00854 1.49-0.00304 1.49-0.00304 3-0.00613 1.04 0.00175 2.08 0.0035 3.15 0.00531 3.46 0.00442 6.92 0.00148 10.4-0.00189 2.41 6.74e-4 4.81 0.00164 7.22 0.0029 5.06 0.00148 10.1-6.78e-4 15.2-0.00534 6.46-0.00566 12.9-0.00244 19.4 0.00357 4.98 0.00364 9.96 0.00245 14.9-1.28e-4 2.38-6.63e-4 4.76 1.37e-4 7.13 0.00248 17.8 0.0193 17.8 0.0193 35.6-1.14-0.605-6.69-1.79-13-3.44-19.5-0.217-0.905-0.434-1.81-0.658-2.74-0.215-0.859-0.429-1.72-0.65-2.6-0.193-0.775-0.385-1.55-0.584-2.35-0.513-2.01-0.513-2.01-2.67-2.81-0.598-2.29-0.598-2.29-1.06-5.19-0.164-0.99-0.327-1.98-0.496-3-0.146-0.928-0.291-1.86-0.441-2.81-0.309-1.83-0.309-1.83-0.625-3.69-0.124-0.763-0.248-1.53-0.375-2.31h-2c-0.103-1.13-0.206-2.27-0.312-3.44-0.487-3.87-1.51-7.29-2.8-11-1.45-4.25-2.62-8.58-3.84-12.9-0.693-2.45-1.4-4.9-2.12-7.35-1.97-6.74-3.71-13.4-4.93-20.3h-2c-0.0606-0.592-0.121-1.18-0.184-1.79-0.437-4.12-0.903-8.16-1.82-12.2h-2c-0.0825-1.15-0.165-2.31-0.25-3.5-0.582-5.38-1.92-10.5-3.29-15.7-1.02-3.9-1.86-7.77-2.46-11.8h-2c-0.125-1.14-0.25-2.27-0.379-3.44-0.573-4.57-1.51-9.01-2.56-13.5-0.254-1.15-0.254-1.15-0.514-2.32-0.45-1.93-0.992-3.84-1.55-5.74-0.66-0.33-1.32-0.66-2-1-0.379-1.86-0.379-1.86-0.562-4.19-0.326-3.64-0.791-7.21-1.44-10.8h-2c-0.115-1.27-0.229-2.54-0.348-3.86-0.587-5.28-1.79-10.3-3.09-15.5-1.85-7.53-3.5-15-4.56-22.7h-3zm-176 221 1 2zm-39 117 1 2zm-9 27 1 2zm-15 45 1 2z" fill="#FCFDFF"/>
<path transform="translate(440,1006)" d="m0 0c2.2 3.56 2.28 6.53 2.34 10.7 0.0138 0.659 0.0275 1.32 0.0417 2 0.0296 1.43 0.0553 2.85 0.0776 4.28 0.0634 3.84 0.166 7.69 0.267 11.5 0.0204 0.791 0.0409 1.58 0.0619 2.4 1.03 49.4 1.03 49.4 20.2 94.1 0.82 1.3 0.82 1.3 1.66 2.62 10.1 15.1 27.2 27.7 44.3 33.4 0.793 0.273 1.59 0.547 2.4 0.828 2.19 0.744 4.39 1.46 6.6 2.17 0.865 0.327 1.73 0.655 2.62 0.992 4.52 1.35 9.01 1.93 13.7 2.51 1.03 0.128 2.06 0.256 3.12 0.388 10.5 1.23 21 1.83 31.6 2.41 10.7 0.591 21.3 1.49 32 2.7v1c-11.7 1.11-23.5 2.06-35.3 2.7-36.6 1.77-36.6 1.77-69.7 16.3-4.73 3-4.73 3-7 3v2c-1.72 1.23-1.72 1.23-4.06 2.62-4.92 3.16-8.25 6.9-11.9 11.4-1.61 1.77-3.23 3.38-5 5h-2c-0.231 0.66-0.461 1.32-0.699 2-1.36 3.14-2.99 5.91-4.78 8.82-15.9 25.9-16.5 54.4-17.2 84-0.0162 0.693-0.0324 1.39-0.0491 2.1-0.0434 1.89-0.0812 3.79-0.119 5.68-0.165 3.19-0.579 6.22-1.17 9.36h2c-0.41 12.8-0.945 25.4-3 38h-1c-1.2-5.83-1.29-11.6-1.46-17.6-0.0774-2.34-0.155-4.67-0.233-7.01-0.0391-1.22-0.0782-2.43-0.118-3.68-0.827-25.5-0.827-25.5-2.25-51.1-0.0792-1.2-0.158-2.4-0.24-3.63-0.18-5.19-0.18-5.19-1.7-10.1-0.348-2.67-0.656-5.33-0.938-8-1.07-9.49-2.38-18.1-6.26-26.9-0.805-2.13-0.805-2.13-0.805-5.13h-2c-0.28-0.534-0.559-1.07-0.848-1.62-3.9-7.24-8.12-14.6-14.1-20.4-0.681-0.66-1.36-1.32-2.06-2v-2c-0.851-0.371-0.851-0.371-1.72-0.75-3.5-1.92-6.16-4.67-9.06-7.38-2.02-1.71-3.81-2.82-6.22-3.88v-2c-0.887-0.268-1.77-0.536-2.69-0.812-3.1-1.11-5.52-2.47-8.31-4.19-1.65-0.698-3.32-1.37-5-2v-2c-2.62-0.627-5.25-1.25-7.88-1.88-0.727-0.174-1.45-0.348-2.2-0.527-2.3-0.546-4.61-1.08-6.92-1.6-0.774-0.179-1.55-0.358-2.35-0.542-6.83-1.48-13.6-2.06-20.6-2.52-1.78-0.124-1.78-0.124-3.59-0.25-3.49-0.239-6.98-0.466-10.5-0.688-0.954-0.0607-1.91-0.121-2.89-0.184-8.96-0.556-17.9-0.934-26.8-0.753-2.27-0.0625-2.27-0.0625-3.27-1.06-1.35-0.231-2.7-0.412-4.06-0.562-1.3-0.144-2.6-0.289-3.94-0.438v-1c10.1-1.89 20-2.38 30.2-2.56 2.26-0.044 4.51-0.0905 6.77-0.143 2.01-0.0461 4.03-0.0839 6.04-0.121 2.83 0.159 2.83 0.159 3.94-1.17 1.81-0.181 3.63-0.3 5.44-0.395 23.4-1.36 41.9-5.61 61.6-18.6 0.887-0.495 1.77-0.99 2.69-1.5 2.84-1.84 4.95-4.08 7.31-6.5 0.908-0.681 1.82-1.36 2.75-2.06 7.88-6.46 13.3-16.2 18.2-24.9 0.508-0.804 1.02-1.61 1.54-2.44 1.52-2.67 2.51-5.21 3.46-8.12 0.309-0.929 0.619-1.86 0.938-2.82 2.8-9.54 4.73-18.8 5.69-28.7 0.126-1.28 0.252-2.55 0.383-3.87 1.44-15.7 1.48-31.6 1.61-47.4 0.018-1.59 0.018-1.59 0.0363-3.22 0.0218-2.01 0.0355-4.02 0.0396-6.03 0.0521-4.56 0.119-8.27 2.3-12.4zm-5 270 1 4zm7 60 1 2z" fill="#FBFCFE"/>
<path transform="translate(1067,257)" d="m0 0h1c1.07 7.12 1.21 14.2 1.38 21.4 0.331 11.6 1.01 23.2 2 34.8 0.0859 1.06 0.0859 1.06 0.174 2.15 0.72 8.82 2.01 17.2 4.45 25.7 0.474 1.78 0.474 1.78 0.957 3.59 4.99 17 14.9 36.3 30 46.4v2c0.541 0.254 1.08 0.508 1.64 0.77 2.82 1.47 5.43 3.19 8.11 4.92 7.36 4.61 15.1 8.35 23.2 11.3 1.34 0.503 1.34 0.503 2.7 1.02 12.1 4.04 24.8 4.3 37.5 5.11 3.51 0.231 7.03 0.467 10.5 0.714 2.17 0.152 4.34 0.295 6.52 0.428 0.976 0.067 1.95 0.134 2.96 0.203 0.857 0.0546 1.71 0.109 2.6 0.165 2.2 0.365 2.2 0.365 5.2 2.37 1.66 0.385 3.32 0.728 5 1v1c-1.19 0.0804-2.38 0.161-3.6 0.244-4.49 0.305-8.98 0.616-13.5 0.928-1.93 0.133-3.86 0.265-5.78 0.396-23.8 1.6-23.8 1.6-47.2 6.43-1.76 0.402-1.76 0.402-3.56 0.812-7.86 2.71-14.8 7.36-21.8 11.8-0.874 0.558-0.874 0.558-1.77 1.13-5.09 3.3-9.57 6.67-13.5 11.3-1.61 1.9-3.19 3.75-4.96 5.5-1.65 1.59-1.65 1.59-3.41 4.44h-2c-0.262 0.73-0.523 1.46-0.793 2.21-1.23 2.84-2.66 4.95-4.52 7.41-7.01 9.94-9.66 19.7-11.9 31.5-0.797 3.87-0.797 3.87-1.8 4.87-0.205 1.41-0.348 2.83-0.465 4.26-0.0769 0.921-0.154 1.84-0.233 2.79-0.0791 1.02-0.158 2.03-0.24 3.08-0.0843 1.05-0.169 2.1-0.255 3.18-0.653 8.32-1.24 16.6-1.8 25-0.132 1.98-0.266 3.96-0.4 5.94-0.468 7.27-0.728 14.5-0.61 21.8-1.32-0.33-2.64-0.66-4-1-0.0376-1.39-0.0376-1.39-0.0759-2.81-0.0951-3.44-0.194-6.88-0.296-10.3-0.0434-1.49-0.085-2.98-0.125-4.47-0.0577-2.14-0.121-4.28-0.186-6.42-0.0367-1.29-0.0733-2.58-0.111-3.9-6.29e-4 -2.99-6.29e-4 -2.99-1.21-5.07-0.0446-1.52-0.039-3.04 0-4.56 0.0379-1.48 0.0463-2.96 0-4.44-0.33-0.33-0.66-0.66-1-1-0.192-1.69-0.324-3.38-0.43-5.07-0.0711-1.05-0.142-2.11-0.216-3.19-0.114-1.69-0.114-1.69-0.23-3.42-1.85-24.4-9.02-45.4-26.4-63.4-1.69-1.93-1.69-1.93-1.69-3.93-0.58-0.26-1.16-0.521-1.76-0.789-2.39-1.29-4.12-2.75-6.12-4.59-3.23-2.88-6.43-5.35-10.1-7.62-0.887-0.547-1.77-1.09-2.69-1.66-12.3-7.38-24.7-12.3-39.1-13.1-2.21-0.211-2.21-0.211-4.21-1.21-3.01-0.286-6.01-0.521-9.02-0.719-0.898-0.0628-1.8-0.126-2.72-0.19-2.88-0.201-5.75-0.397-8.63-0.591-2.87-0.195-5.74-0.391-8.61-0.591-1.79-0.125-3.57-0.246-5.36-0.364-0.814-0.0568-1.63-0.114-2.47-0.172-0.713-0.0481-1.43-0.0961-2.16-0.146-2.08-0.233-4.01-0.675-6.02-1.23v-2c-1.32-0.33-2.64-0.66-4-1 1.15-0.0449 2.29-0.0898 3.47-0.136 26.3-0.912 26.3-0.912 52.6-3.3 0.905-0.11 1.81-0.22 2.74-0.333 5.66-0.78 10.8-2.24 16.2-4.23 1.36-0.491 1.36-0.491 2.75-0.992 17.1-6.7 34.5-17.9 44.6-33.5 0.557-0.825 1.11-1.65 1.69-2.5h2c0.281-0.727 0.562-1.45 0.852-2.2 1.06-2.59 2.24-5.05 3.52-7.55 0.876-1.75 1.75-3.5 2.62-5.25 0.378-0.746 0.755-1.49 1.14-2.26 2.45-5.1 3.63-9.95 4.46-15.6 0.395-2.19 0.395-2.19 1.39-3.19 0.39-2.94 0.717-5.86 1-8.81 0.0876-0.884 0.175-1.77 0.265-2.68 0.704-7.43 1.12-14.9 1.39-22.3 0.241-6.09 0.241-6.09 1.34-7.19 0.159-2.29 0.251-4.58 0.316-6.88 0.0312-1.03 0.0312-1.03 0.063-2.08 0.0656-2.2 0.124-4.4 0.183-6.6 0.0432-1.49 0.0868-2.98 0.131-4.47 0.107-3.66 0.209-7.31 0.307-11h2v-8zm0 9 1 4zm-3 31v7h1v-7h-1zm-2 218 1 2zm1 10v8h1v-8h-1zm1 13v5h1v-5h-1z" fill="#FBFCFE"/>
<path transform="translate(336,1209)" d="m0 0c0.0673 1.31 0.0673 1.31 0.136 2.66 0.175 3.31 0.361 6.62 0.554 9.93 0.0806 1.42 0.157 2.84 0.229 4.26 0.933 18.2 4.39 32.3 18.1 45.1 10 7.78 21.7 10.3 34.2 10.8 2.8 0.176 2.8 0.176 4.8 1.18 1.7 0.226 3.41 0.409 5.12 0.562 1.37 0.126 1.37 0.126 2.76 0.254 0.699 0.0606 1.4 0.121 2.12 0.184v1c-0.655 0.049-1.31 0.098-1.98 0.148-13.7 1.12-28.4 2.5-40.3 9.86-1.74 0.988-1.74 0.988-3.74 0.988-0.495 1.48-0.495 1.48-1 3-4.46 4-4.46 4-7 4-0.371 1.08-0.371 1.08-0.75 2.19-1.25 2.81-1.25 2.81-3.12 5.06-8.96 11.6-8.41 27.1-8.75 41.1-0.0383 1.33-0.0774 2.67-0.117 4-0.093 3.21-0.179 6.42-0.258 9.62-1.96-0.599-1.96-0.599-4-2-0.574-2.82-0.574-2.82-0.688-6.41-0.0569-1.31-0.114-2.62-0.172-3.98-0.0226-0.693-0.0452-1.39-0.0684-2.1-0.366-10.9-1.1-21.3-4.27-31.8-0.805-2.7-0.805-2.7-0.805-5.7h-2c-0.89-1.47-1.71-2.98-2.5-4.5-5.88-10-14.8-14.7-25.5-18.5-0.874-0.351-1.75-0.701-2.65-1.06-4.85-1.36-9.71-1.67-14.7-2.06-1.53-0.13-1.53-0.13-3.1-0.262-2.51-0.211-5.02-0.415-7.53-0.613 0.639-0.309 1.28-0.619 1.94-0.938 2-0.897 2-0.897 3.06-2.06 1.59-0.25 3.18-0.444 4.78-0.613 0.989-0.114 1.98-0.228 3-0.346 2.07-0.232 4.14-0.456 6.22-0.672 13-1.53 23.8-6.35 32.6-16.3 10.1-13.5 11.3-28.8 12-45.2 0.0648-1.44 0.0648-1.44 0.131-2.91 0.105-2.34 0.207-4.68 0.307-7.03 2-1 2-1 3-1zm-6 38 1 2zm1 80 1 3z" fill="#FBFCFE"/>
<path transform="translate(1171,244)" d="m0 0c2.21 1.75 2.94 2.68 3.48 5.49 0.049 0.974 0.098 1.95 0.148 2.95 0.101 1.62 0.101 1.62 0.203 3.27 0.0567 1.13 0.113 2.25 0.172 3.41 0.4 7.78 1.07 14.6 4 21.9 0.454 1.2 0.908 2.39 1.38 3.62 1.3 2.7 2.56 4.8 4.31 7.19 2.31 3.19 2.31 3.19 2.31 5.19 0.565 0.259 1.13 0.518 1.71 0.785 2.52 1.34 4.64 2.93 6.91 4.65 4.95 3.51 9.53 5.16 15.4 6.56 1.05 0.325 2.11 0.65 3.19 0.985 3.81 1.01 7.36 1.51 11.3 1.87 0.678 0.0638 1.36 0.128 2.06 0.193 2.14 0.2 4.28 0.39 6.42 0.58 1.46 0.135 2.92 0.27 4.38 0.406 3.56 0.33 7.12 0.652 10.7 0.969v1c-1.4 0.0561-1.4 0.0561-2.83 0.113-20.2 1.01-40.4 2.85-56.2 16.9-2.77 3.1-5.14 6.28-7 10h-2c-0.193 0.713-0.387 1.43-0.586 2.16-0.26 0.958-0.521 1.92-0.789 2.9-0.383 1.41-0.383 1.41-0.773 2.85-0.572 2.08-1.2 4.14-1.89 6.18-1.53 5.36-1.66 10.9-2.03 16.5-0.155 2.21-0.313 4.42-0.473 6.63-0.0658 0.971-0.132 1.94-0.199 2.94-0.277 2.99-0.738 5.91-1.27 8.86h-1c-1.89-9.18-2.59-18.4-3.21-27.7-0.11-1.51-0.11-1.51-0.223-3.06-0.0606-0.908-0.121-1.82-0.184-2.75-0.39-2.54-1.14-4.24-2.38-6.47-0.39-1.35-0.765-2.7-1.12-4.06-3.57-10.8-11.6-19.1-21.6-24.4-9.54-4.2-19.6-5.13-29.9-6.29-3.15-0.367-6.29-0.816-9.43-1.28v-2c0.709-0.0344 1.42-0.0688 2.15-0.104 27.8-1.19 27.8-1.19 50.6-15.8 2.86-3.5 5.41-6.98 7.25-11.1 0.349-0.785 0.699-1.57 1.06-2.38 4.16-11.2 4.1-23.3 4.71-35.1 0.234-2.5 0.234-2.5 1.23-4.5z" fill="#F9FAFC"/>
<path transform="translate(441,1329)" d="m0 0h1v6h2c-0.41 12.8-0.945 25.4-3 38h-1c-0.9-4.68-1.2-9.27-1.32-14-0.0208-0.746-0.0416-1.49-0.063-2.26-0.0649-2.36-0.124-4.73-0.183-7.09-0.0432-1.61-0.0869-3.22-0.131-4.83-0.107-3.93-0.208-7.86-0.307-11.8 0.66 0.66 1.32 1.32 2 2 0.33-1.98 0.66-3.96 1-6zm1 7 1 2z" fill="#030405"/>
<path transform="translate(1066,578)" d="m0 0h2v25c-0.66 0.33-1.32 0.66-2 1v-26z" fill="#000102"/>
<path transform="translate(1067,240)" d="m0 0h1v16c-0.66 0.33-1.32 0.66-2 1-0.0271-2.08-0.0464-4.17-0.0625-6.25-0.0116-1.16-0.0232-2.32-0.0352-3.52 0.0798-2.64 0.311-4.73 1.1-7.23z" fill="#000102"/>
<path transform="translate(602,1179)" d="m0 0h19v1c-9.4 0.495-9.4 0.495-19 1v-2z" fill="#000102"/>
<path transform="translate(1071,1021)" d="m0 0h21v1h-21v-1z" fill="#000102"/>
<path transform="translate(254,1284)" d="m0 0h15c-0.33 0.66-0.66 1.32-1 2-6.93-0.495-6.93-0.495-14-1v-1z" fill="#000102"/>
<path transform="translate(443,1026)" d="m0 0h1v18h-1v-18z" fill="#000102"/>
<path transform="translate(902,420)" d="m0 0h17v1h-17v-1z" fill="#000102"/>
<path transform="translate(262,1179)" d="m0 0h16v1h-16v-1z" fill="#000102"/>
<path transform="translate(1172,227)" d="m0 0h1c0.33 3.63 0.66 7.26 1 11-0.99 0.495-0.99 0.495-2 1v-12z" fill="#000102"/>
<path transform="translate(1172,392)" d="m0 0h2c-0.33 3.63-0.66 7.26-1 11h-1v-11z" fill="#000102"/>
<path transform="translate(1250,314)" d="m0 0c2.88-0.125 2.88-0.125 6 0 0.66 0.66 1.32 1.32 2 2h-8v-2z" fill="#000102"/>
<path transform="translate(1215,420)" d="m0 0h13v1h-13v-1z" fill="#000102"/>
<path transform="translate(440 1e3)" d="m0 0h2v6c-0.66-0.33-1.32-0.66-2-1v-5z" fill="#000102"/>
<path transform="translate(405,1284)" d="m0 0h7v1c-2.31 0.33-4.62 0.66-7 1v-2z" fill="#000102"/>
<path transform="translate(560,1183)" d="m0 0h6v1h-6v-1z" fill="#000102"/>
<path transform="translate(898,769)" d="m0 0h1v6h-1v-6z" fill="#000102"/>
<path transform="translate(1173,239)" d="m0 0h1v6h-1v-6z" fill="#FCFDFF"/>
<path transform="translate(443,1329)" d="m0 0h1v5h-1v-5z" fill="#FCFDFF"/>
<path transform="translate(882,977)" d="m0 0h1v5h-1v-5z" fill="#000102"/>
<path transform="translate(920,420)" d="m0 0c1.32 0.33 2.64 0.66 4 1l-2 1c-0.66-0.66-1.32-1.32-2-2z" fill="#646567"/>
<path transform="translate(1102,314)" d="m0 0c0.66 0.66 1.32 1.32 2 2-1.32-0.33-2.64-0.66-4-1 0.66-0.33 1.32-0.66 2-1z" fill="#000102"/>
<path transform="translate(444,1296)" d="m0 0 1 4z" fill="#000102"/>
<path transform="translate(287,1288)" d="m0 0 4 1z" fill="#000102"/>
<path transform="translate(336,1205)" d="m0 0 1 4z" fill="#FCFDFF"/>
<path transform="translate(333,1184)" d="m0 0 4 1z" fill="#000102"/>
<path transform="translate(316,1183)" d="m0 0 4 1z" fill="#000102"/>
<path transform="translate(1330,577)" d="m0 0 1 4z" fill="#000102"/>
<path transform="translate(953,424)" d="m0 0 4 1z" fill="#000102"/>
<path transform="translate(1195,423)" d="m0 0 4 1z" fill="#000102"/>
<path transform="translate(578,1182)" d="m0 0c3 1 3 1 3 1z" fill="#000102"/>
<path transform="translate(1181,424)" d="m0 0c3 1 3 1 3 1z" fill="#000102"/>
<path transform="translate(280,1287)" d="m0 0 2 1z" fill="#000102"/>
<path transform="translate(299,1182)" d="m0 0 2 1z" fill="#000102"/>
<path transform="translate(590,1181)" d="m0 0 2 1z" fill="#7E7F80"/>
<path transform="translate(936,423)" d="m0 0 2 1z" fill="#000102"/>
</svg>
